<?xml version="1.0" encoding="UTF-8"?>
<svg version="1.1" xmlns="http://www.w3.org/2000/svg" width="147" height="147">
<path d="M0 0 C48.51 0 97.02 0 147 0 C147 48.51 147 97.02 147 147 C98.49 147 49.98 147 0 147 C0 98.49 0 49.98 0 0 Z " fill="#000000" transform="translate(0,0)"/>
<path d="M0 0 C-0.63888887 5.06040549 -2.86279277 9.28011534 -5.0625 13.8125 C-5.43955078 14.60076172 -5.81660156 15.38902344 -6.20507812 16.20117188 C-7.13170161 18.13652473 -8.06517467 20.06859549 -9 22 C-9.66 22 -10.32 22 -11 22 C-11.33064453 23.64935547 -11.33064453 23.64935547 -11.66796875 25.33203125 C-13.05231368 30.86090314 -15.67911929 35.66436872 -18.3125 40.6875 C-22.40173931 48.65289336 -26.10204181 56.51426607 -29 65 C-29.66 65 -30.32 65 -31 65 C-31.23460937 65.80695313 -31.46921875 66.61390625 -31.7109375 67.4453125 C-33.30000035 71.8272737 -35.40649114 75.78462429 -37.625 79.875 C-38.25535156 81.050625 -38.25535156 81.050625 -38.8984375 82.25 C-39.9281022 84.16892057 -40.96347567 86.08477603 -42 88 C-45.76299656 86.5480641 -46.92998411 84.88303627 -48.69140625 81.30859375 C-49.39620117 79.89030273 -49.39620117 79.89030273 -50.11523438 78.44335938 C-50.59283203 77.45142578 -51.07042969 76.45949219 -51.5625 75.4375 C-52.04396484 74.47263672 -52.52542969 73.50777344 -53.02148438 72.51367188 C-55.83761373 66.77682515 -58.12730004 61.10992006 -60 55 C-60.66 55 -61.32 55 -62 55 C-63.96835875 51.1508749 -65.92286097 47.29487312 -67.875 43.4375 C-68.43058594 42.35146484 -68.98617187 41.26542969 -69.55859375 40.14648438 C-72.24193409 34.82829779 -74.68018793 29.82220896 -76 24 C-76.66 24 -77.32 24 -78 24 C-79.68366995 20.94655708 -81.34381222 17.88092357 -83 14.8125 C-83.47695312 13.94818359 -83.95390625 13.08386719 -84.4453125 12.19335938 C-84.89648438 11.35224609 -85.34765625 10.51113281 -85.8125 9.64453125 C-86.23144531 8.87471924 -86.65039062 8.10490723 -87.08203125 7.31176758 C-88.11210918 4.71766973 -88.17114843 2.76618651 -88 0 C-82.12842432 -3.31687568 -76.17051208 -5.75173408 -69.75 -7.75 C-69.07710937 -7.96035889 -68.40421875 -8.17071777 -67.7109375 -8.38745117 C-46.19211529 -14.88615674 -18.95411086 -12.63607391 0 0 Z " fill="#E62426" transform="translate(114,52)"/>
<path d="M0 0 C0.8031665 0.27980713 1.60633301 0.55961426 2.43383789 0.84790039 C7.34166204 2.69218213 10.39196287 4.63551582 13.8125 8.625 C12.45493019 14.42552556 10.3273779 19.76466438 6.8125 24.625 C3.8125 25.625 3.8125 25.625 1.5703125 24.76953125 C0.70148438 24.32996094 -0.16734375 23.89039062 -1.0625 23.4375 C-24.37356193 12.409928 -49.39859148 12.25876818 -73.6015625 20.3125 C-76.53045657 21.38451352 -79.1955295 22.53217936 -81.9375 24 C-85.1875 25.625 -85.1875 25.625 -87.1875 25.5859375 C-90.25802104 24.1106481 -90.97988054 21.89330293 -92.4375 18.875 C-92.95828125 17.82828125 -93.4790625 16.7815625 -94.015625 15.703125 C-95.98989849 10.51736664 -95.98989849 10.51736664 -95.1875 7.625 C-90.47429749 3.48059235 -84.52374874 1.36528351 -78.625 -0.5 C-77.83399902 -0.75152832 -77.04299805 -1.00305664 -76.22802734 -1.26220703 C-73.88720614 -1.98879869 -71.54002363 -2.68736307 -69.1875 -3.375 C-68.02605469 -3.72046875 -66.86460938 -4.0659375 -65.66796875 -4.421875 C-44.19600249 -9.72112628 -20.61779994 -7.2495918 0 0 Z " fill="#DE2A2A" transform="translate(111.1875,22.375)"/>
<path d="M0 0 C5.08546618 3.81409963 5.08546618 3.81409963 5.71875 7.17578125 C5.81352818 15.74135927 5.81352818 15.74135927 2.9375 19.3125 C-0.77791439 22.59588946 -3.8200541 23.08828075 -8.75 23.04296875 C-12.15486056 22.43780799 -13.68135294 20.3037301 -15.75 17.6875 C-18.5699641 13.45755384 -18.54231188 9.65529552 -17.75 4.6875 C-13.24034377 -1.28474744 -6.99930057 -3.34057527 0 0 Z " fill="#FEF9F8" transform="translate(86.75,50.3125)"/>
<path d="M0 0 C1.98 0.99 1.98 0.99 4 2 C4.5390625 4.3203125 4.5390625 4.3203125 4.625 7.125 C4.88948503 12.02119842 5.66670888 16.28903805 7 21 C7.99 21 8.98 21 10 21 C10.02686553 22.97909398 10.04633375 24.95828971 10.0625 26.9375 C10.07410156 28.03964844 10.08570313 29.14179687 10.09765625 30.27734375 C10 33 10 33 9 34 C4.545 34.495 4.545 34.495 0 35 C0 23.45 0 11.9 0 0 Z " fill="#1E1E1E" transform="translate(0,72)"/>
<path d="M0 0 C3.9375 0.4375 3.9375 0.4375 6.9375 2.4375 C7.98797601 6.41430203 8.35865615 8.55690077 6.5625 12.3125 C4.9375 14.4375 4.9375 14.4375 3.9375 15.4375 C-2.21428571 16.01785714 -2.21428571 16.01785714 -5.4375 13.8125 C-7.46244536 10.85296447 -8.0625 9.0323199 -8.0625 5.4375 C-6.0576417 1.4277834 -4.38673954 0.12140423 0 0 Z " fill="#FEF4F2" transform="translate(54.0625,67.5625)"/>
<path d="M0 0 C5.19209404 -0.21192221 9.126739 0.4087311 14 2 C13.67 2.99 13.34 3.98 13 5 C12.01 4.34 11.02 3.68 10 3 C10.495 3.391875 10.99 3.78375 11.5 4.1875 C13.45593143 6.55091715 13.24207973 8.01435003 13 11 C11.96875 10.835 10.9375 10.67 9.875 10.5 C6.51755674 10.06678152 3.37663843 9.91764297 0 10 C0 6.7 0 3.4 0 0 Z " fill="#F48278" transform="translate(78,22)"/>
<path d="M0 0 C2.5 0.25 2.5 0.25 4.5 2.25 C4.75 5.25 4.75 5.25 4.5 8.25 C2.5 10.25 2.5 10.25 0 10.5 C-2.5 10.25 -2.5 10.25 -4.5 8.25 C-4.75 5.25 -4.75 5.25 -4.5 2.25 C-2.5 0.25 -2.5 0.25 0 0 Z " fill="#FDECE8" transform="translate(80.5,96.75)"/>
<path d="M0 0 C0.66 0 1.32 0 2 0 C2.33 0.66 2.66 1.32 3 2 C3.33 1.34 3.66 0.68 4 0 C5.98 0 7.96 0 10 0 C10.125 6.75 10.125 6.75 9 9 C8.01 9 7.02 9 6 9 C6 8.34 6 7.68 6 7 C5.34 7 4.68 7 4 7 C4 7.66 4 8.32 4 9 C3.01 9 2.02 9 1 9 C0.67 6.03 0.34 3.06 0 0 Z " fill="#F9C1B4" transform="translate(66,22)"/>
<path d="M0 0 C0.99 0 1.98 0 3 0 C3.33 0.99 3.66 1.98 4 3 C5.32 2.67 6.64 2.34 8 2 C7.44271087 5.34373475 6.64826111 8.03312999 5 11 C4.34 10.01 3.68 9.02 3 8 C1.68 8 0.36 8 -1 8 C-1.93065133 5.39417629 -2.14917407 4.35801776 -1.0625 1.75 C-0.711875 1.1725 -0.36125 0.595 0 0 Z " fill="#FAC3B6" transform="translate(104,27)"/>
<path d="M0 0 C1.2065625 0.0309375 1.2065625 0.0309375 2.4375 0.0625 C3.4701802 2.85073655 3.48259293 3.9302274 2.5 6.8125 C2.149375 7.555 1.79875 8.2975 1.4375 9.0625 C-0.2125 9.0625 -1.8625 9.0625 -3.5625 9.0625 C-3.66015625 2.91015625 -3.66015625 2.91015625 -3.5625 1.0625 C-2.5625 0.0625 -2.5625 0.0625 0 0 Z " fill="#F6968A" transform="translate(97.5625,24.9375)"/>
<path d="M0 0 C1.65 0 3.3 0 5 0 C5.33 2.64 5.66 5.28 6 8 C4.35 8.33 2.7 8.66 1 9 C0.67 8.34 0.34 7.68 0 7 C1.32 7 2.64 7 4 7 C4 6.34 4 5.68 4 5 C2.35 5 0.7 5 -1 5 C-0.67 3.35 -0.34 1.7 0 0 Z " fill="#F8AB9C" transform="translate(39,26)"/>
<path d="M0 0 C0.99 0 1.98 0 3 0 C5.09230769 4.43076923 5.09230769 4.43076923 4.625 7.3125 C4.41875 7.869375 4.2125 8.42625 4 9 C2.35 9 0.7 9 -1 9 C-1.09765625 2.84765625 -1.09765625 2.84765625 -1 1 C-0.67 0.67 -0.34 0.34 0 0 Z " fill="#FACBBF" transform="translate(59,22)"/>
<path d="M0 0 C1.65 0.33 3.3 0.66 5 1 C5 1.66 5 2.32 5 3 C4.01 3 3.02 3 2 3 C2.33 3.99 2.66 4.98 3 6 C2.01 6 1.02 6 0 6 C0 6.66 0 7.32 0 8 C0.66 8 1.32 8 2 8 C2 8.66 2 9.32 2 10 C0.68 9.67 -0.64 9.34 -2 9 C-1.125 2.25 -1.125 2.25 0 0 Z " fill="#FAC3B7" transform="translate(114,31)"/>
<path d="M0 0 C1.5 1.125 1.5 1.125 3 3 C3.1875 6.1875 3.1875 6.1875 3 9 C1.35 9.33 -0.3 9.66 -2 10 C-3.42944945 7.64561267 -4.08661261 6.51967567 -3.625 3.75 C-3.41875 3.1725 -3.2125 2.595 -3 2 C-2.71125 2.804375 -2.4225 3.60875 -2.125 4.4375 C-1.26737432 7.1326468 -1.26737432 7.1326468 1 8 C0.67 5.36 0.34 2.72 0 0 Z " fill="#FACABE" transform="translate(34,28)"/>
<path d="M0 0 C1.98 0 3.96 0 6 0 C6 0.66 6 1.32 6 2 C5.01 2 4.02 2 3 2 C3 2.66 3 3.32 3 4 C3.66 4.33 4.32 4.66 5 5 C4.01 5 3.02 5 2 5 C2 5.99 2 6.98 2 8 C2.99 8.33 3.98 8.66 5 9 C3.35 9 1.7 9 0 9 C0 6.03 0 3.06 0 0 Z " fill="#FAC5B9" transform="translate(78,22)"/>
<path d="M0 0 C0.66 0 1.32 0 2 0 C3.85776765 3.13498292 4.20140476 5.37471432 4 9 C2.35 9.33 0.7 9.66 -1 10 C-1.33 9.01 -1.66 8.02 -2 7 C-0.68 7.33 0.64 7.66 2 8 C1.34 5.36 0.68 2.72 0 0 Z " fill="#FAC0B3" transform="translate(25,31)"/>
<path d="M0 0 C0.99 0.66 1.98 1.32 3 2 C2.67 4.31 2.34 6.62 2 9 C1.01 8.67 0.02 8.34 -1 8 C-1 6.68 -1 5.36 -1 4 C-1.99 3.67 -2.98 3.34 -4 3 C-4 2.34 -4 1.68 -4 1 C-3.01 1.33 -2.02 1.66 -1 2 C-0.67 1.34 -0.34 0.68 0 0 Z " fill="#F15D51" transform="translate(92,24)"/>
<path d="M0 0 C1.85776765 3.13498292 2.20140476 5.37471432 2 9 C0.35 9.33 -1.3 9.66 -3 10 C-2.835 9.236875 -2.67 8.47375 -2.5 7.6875 C-1.90854604 4.96403764 -1.90854604 4.96403764 -2 2 C-1.67 2.33 -1.34 2.66 -1 3 C-0.67 2.01 -0.34 1.02 0 0 Z " fill="#F0554A" transform="translate(65,22)"/>
<path d="M0 0 C1.32 0.66 2.64 1.32 4 2 C3.34 2 2.68 2 2 2 C1.34 4.97 0.68 7.94 0 11 C-0.33 10.34 -0.66 9.68 -1 9 C-1.66 8.67 -2.32 8.34 -3 8 C-2.01 5.36 -1.02 2.72 0 0 Z " fill="#EF423D" transform="translate(112,29)"/>
<path d="M0 0 C0.33 0.99 0.66 1.98 1 3 C2.65 3 4.3 3 6 3 C6 3.66 6 4.32 6 5 C3 7 3 7 0 8 C-0.38063221 5.6739143 -0.71269945 3.33944736 -1 1 C-0.67 0.67 -0.34 0.34 0 0 Z " fill="#F1554A" transform="translate(37,28)"/>
<path d="M0 0 C0.66 0.33 1.32 0.66 2 1 C2.59355614 3.64860427 2.74209269 6.29197322 3 9 C2.01 9.33 1.02 9.66 0 10 C-0.66 7.69 -1.32 5.38 -2 3 C-1.34 3 -0.68 3 0 3 C0 2.01 0 1.02 0 0 Z " fill="#F05148" transform="translate(29,29)"/>
<path d="M0 0 C0.66 0 1.32 0 2 0 C3.85776765 3.13498292 4.20140476 5.37471432 4 9 C3.01 9 2.02 9 1 9 C0.67 6.03 0.34 3.06 0 0 Z " fill="#FCD9D1" transform="translate(66,22)"/>
<path d="M0 0 C2.19117105 3.28675658 2.09652576 4.23549534 2 8 C2.33 8.66 2.66 9.32 3 10 C2.01 10 1.02 10 0 10 C0 9.34 0 8.68 0 8 C-0.66 7.67 -1.32 7.34 -2 7 C-1.34 4.69 -0.68 2.38 0 0 Z " fill="#F05249" transform="translate(101,26)"/>
<path d="M0 0 C0.66 0 1.32 0 2 0 C1.85892253 1.45880109 1.71197585 2.91703551 1.5625 4.375 C1.48128906 5.18710937 1.40007813 5.99921875 1.31640625 6.8359375 C1 9 1 9 0 11 C-1.84651134 7.88401212 -2.38079379 5.61754103 -2 2 C-1.34 1.34 -0.68 0.68 0 0 Z " fill="#96322B" transform="translate(18,28)"/>
<path d="M0 0 C0 2.97 0 5.94 0 9 C-0.66 9 -1.32 9 -2 9 C-2.12375 7.865625 -2.2475 6.73125 -2.375 5.5625 C-2.58125 4.386875 -2.7875 3.21125 -3 2 C-3.66 1.67 -4.32 1.34 -5 1 C-3 0 -3 0 0 0 Z " fill="#FBCFC3" transform="translate(51,24)"/>
<path d="M0 0 C1.98 0 3.96 0 6 0 C5.67 1.65 5.34 3.3 5 5 C3.35 4.67 1.7 4.34 0 4 C1.32 3.67 2.64 3.34 4 3 C4 2.34 4 1.68 4 1 C2.68 0.67 1.36 0.34 0 0 Z " fill="#FBD5CC" transform="translate(39,30)"/>
<path d="M0 0 C0.66 0 1.32 0 2 0 C2 1.65 2 3.3 2 5 C1.34 5 0.68 5 0 5 C-0.33 5.99 -0.66 6.98 -1 8 C-1.93065133 5.39417629 -2.14917407 4.35801776 -1.0625 1.75 C-0.711875 1.1725 -0.36125 0.595 0 0 Z " fill="#FBD3C9" transform="translate(104,27)"/>
<path d="M0 0 C1.65 0 3.3 0 5 0 C5.625 1.875 5.625 1.875 6 4 C5.34 4.66 4.68 5.32 4 6 C4 4.68 4 3.36 4 2 C3.01 2 2.02 2 1 2 C0.67 2.66 0.34 3.32 0 4 C0 2.68 0 1.36 0 0 Z " fill="#FBD2C7" transform="translate(95,25)"/>
<path d="M0 0 C1.76462683 3.08809695 2 4.23312136 2 8 C1.01 7.67 0.02 7.34 -1 7 C-1.33 5.35 -1.66 3.7 -2 2 C-1.34 2 -0.68 2 0 2 C0 1.34 0 0.68 0 0 Z " fill="#F1534B" transform="translate(33,28)"/>
<path d="M0 0 C1.98 0.99 1.98 0.99 4 2 C3.67 3.32 3.34 4.64 3 6 C2.01 5.67 1.02 5.34 0 5 C0 3.35 0 1.7 0 0 Z " fill="#F9BAAD" transform="translate(60,25)"/>
</svg>
